<svg width="240" height="82" viewBox="0 0 240 82" fill="none" xmlns="http://www.w3.org/2000/svg">
  <defs>
    <linearGradient id="cmBlade" x1="14" y1="10" x2="86" y2="74" gradientUnits="userSpaceOnUse">
      <stop stop-color="#62F5D4"/>
      <stop offset="0.5" stop-color="#59C6FF"/>
      <stop offset="1" stop-color="#7F8CFF"/>
    </linearGradient>
    <linearGradient id="cmType" x1="102" y1="14" x2="232" y2="66" gradientUnits="userSpaceOnUse">
      <stop stop-color="#F4FFFC"/>
      <stop offset="0.55" stop-color="#62F5D4"/>
      <stop offset="1" stop-color="#59C6FF"/>
    </linearGradient>
    <filter id="cmNeon" x="0" y="0" width="240" height="82" filterUnits="userSpaceOnUse" color-interpolation-filters="sRGB">
      <feFlood flood-opacity="0" result="BackgroundImageFix"/>
      <feBlend mode="normal" in="SourceGraphic" in2="BackgroundImageFix" result="shape"/>
      <feGaussianBlur stdDeviation="2.6" result="effect1_foregroundBlur"/>
    </filter>
  </defs>

  <g filter="url(#cmNeon)">
    <path d="M48 8L73 21V45L48 58L23 45V21L48 8Z" stroke="url(#cmBlade)" stroke-width="2.4"/>
    <path d="M48 17L64 25.5V40.5L48 49L32 40.5V25.5L48 17Z" stroke="#62F5D4" stroke-width="1.7"/>
    <path d="M48 24V42" stroke="#62F5D4" stroke-width="1.7" stroke-linecap="round"/>
    <path d="M39 33H57" stroke="#59C6FF" stroke-width="1.7" stroke-linecap="round"/>
    <path d="M73 21L88 13" stroke="#59C6FF" stroke-width="1.7" stroke-linecap="round"/>
    <path d="M73 45L91 52" stroke="#7F8CFF" stroke-width="1.7" stroke-linecap="round"/>
    <path d="M23 21L10 12" stroke="#59C6FF" stroke-width="1.7" stroke-linecap="round"/>
    <path d="M23 45L12 57" stroke="#62F5D4" stroke-width="1.7" stroke-linecap="round"/>
    <path d="M48 58V73" stroke="#62F5D4" stroke-width="1.7" stroke-linecap="round"/>
    <circle cx="89" cy="12.5" r="2.4" fill="#59C6FF"/>
    <circle cx="92" cy="52.5" r="2.4" fill="#7F8CFF"/>
    <circle cx="11" cy="12.5" r="2.4" fill="#59C6FF"/>
    <circle cx="11" cy="58" r="2.4" fill="#62F5D4"/>
    <circle cx="48" cy="73" r="2.4" fill="#62F5D4"/>
  </g>

  <g opacity="0.9">
    <path d="M104 23H128" stroke="#62F5D4" stroke-width="1.2" stroke-linecap="round"/>
    <path d="M104 57H120" stroke="#59C6FF" stroke-width="1.2" stroke-linecap="round"/>
    <path d="M216 17H232" stroke="#7F8CFF" stroke-width="1.2" stroke-linecap="round"/>
  </g>

  <text x="102" y="35" fill="url(#cmType)" font-family="Orbitron, Arial, sans-serif" font-size="27" font-weight="800" letter-spacing="1.8">CIEL</text>
  <text x="102" y="58" fill="#9CEFE1" font-family="JetBrains Mono, monospace" font-size="13" font-weight="700" letter-spacing="4.4">MATRIX//CYBER</text>
</svg>
