<svg width="220" height="78" viewBox="0 0 220 78" fill="none" xmlns="http://www.w3.org/2000/svg">
  <defs>
    <linearGradient id="cmStroke" x1="10" y1="8" x2="76" y2="72" gradientUnits="userSpaceOnUse">
      <stop stop-color="#62F5D4"/>
      <stop offset="0.52" stop-color="#59C6FF"/>
      <stop offset="1" stop-color="#7F8CFF"/>
    </linearGradient>
    <linearGradient id="cmText" x1="92" y1="18" x2="214" y2="68" gradientUnits="userSpaceOnUse">
      <stop stop-color="#E7FFF8"/>
      <stop offset="1" stop-color="#62F5D4"/>
    </linearGradient>
    <filter id="cmGlow" x="0" y="0" width="220" height="78" filterUnits="userSpaceOnUse" color-interpolation-filters="sRGB">
      <feFlood flood-opacity="0" result="BackgroundImageFix"/>
      <feBlend mode="normal" in="SourceGraphic" in2="BackgroundImageFix" result="shape"/>
      <feGaussianBlur stdDeviation="2.4" result="effect1_foregroundBlur"/>
    </filter>
  </defs>
  <g filter="url(#cmGlow)">
    <path d="M44 9L62.2 19.5V40.5L44 51L25.8 40.5V19.5L44 9Z" stroke="url(#cmStroke)" stroke-width="2.2"/>
    <path d="M44 19L53.4 24.3V35.7L44 41L34.6 35.7V24.3L44 19Z" stroke="#62F5D4" stroke-width="1.5" opacity="0.9"/>
    <path d="M44 41V57" stroke="#62F5D4" stroke-width="1.5" stroke-linecap="round"/>
    <path d="M62.2 19.5L74 12" stroke="#59C6FF" stroke-width="1.5" stroke-linecap="round"/>
    <path d="M62.2 40.5L76 47" stroke="#7F8CFF" stroke-width="1.5" stroke-linecap="round"/>
    <path d="M25.8 19.5L14 12" stroke="#59C6FF" stroke-width="1.5" stroke-linecap="round"/>
    <circle cx="44" cy="58.5" r="2.4" fill="#62F5D4"/>
    <circle cx="76.5" cy="47.5" r="2.2" fill="#7F8CFF"/>
    <circle cx="74.5" cy="12" r="2.2" fill="#59C6FF"/>
    <circle cx="13.5" cy="12" r="2.2" fill="#59C6FF"/>
  </g>
  <text x="92" y="31" fill="url(#cmText)" font-family="Orbitron, Arial, sans-serif" font-size="24" font-weight="800" letter-spacing="1.6">CIEL</text>
  <text x="92" y="55" fill="#8DB5B1" font-family="JetBrains Mono, monospace" font-size="13" font-weight="700" letter-spacing="3.2">MATRIX</text>
</svg>
